<svg width="80" height="80" viewBox="0 0 80 80" fill="none" xmlns="http://www.w3.org/2000/svg">
<path fill-rule="evenodd" clip-rule="evenodd" d="M13.2682 58.3583C16.2838 59.9671 19.6633 60.7714 23.4068 60.7714C27.2023 60.7714 30.5558 59.9152 33.4674 58.2027C36.0968 56.6093 38.2173 54.4235 39.829 51.6451C41.5885 54.5368 43.9526 56.7745 46.9216 58.3583C49.9372 59.9671 53.3167 60.7714 57.0602 60.7714C60.8557 60.7714 64.2092 59.9152 67.1208 58.2027C70.0324 56.4383 72.3201 53.9473 73.9839 50.7299C75.6477 47.5125 76.4795 43.7242 76.4795 39.3651C76.4795 35.2135 75.6217 31.6588 73.9059 28.7008C72.1901 25.6909 69.8504 23.3817 66.8868 21.7729C63.9232 20.1642 60.5697 19.3599 56.8262 19.3599C53.2907 19.3599 50.0151 20.268 46.9996 22.0843C44.2928 23.6958 42.0632 25.9349 40.3106 28.8018C40.2914 28.768 40.272 28.7344 40.2525 28.7008C38.5368 25.6909 36.1971 23.3817 33.2335 21.7729C30.2699 20.1642 26.9163 19.3599 23.1728 19.3599C19.6373 19.3599 16.3618 20.268 13.3462 22.0843C10.3826 23.8487 7.99092 26.3656 6.17117 29.6349C4.40341 32.8523 3.51953 36.6147 3.51953 40.9219C3.51953 44.9696 4.37741 48.4985 6.09318 51.5083C7.86094 54.4663 10.2526 56.7496 13.2682 58.3583ZM40.3106 28.8018C40.1443 29.0738 39.9823 29.3515 39.8245 29.6349C38.0568 32.8523 37.1729 36.6147 37.1729 40.9219C37.1729 44.9696 38.0308 48.4985 39.7465 51.5083C39.7739 51.5541 39.8014 51.5997 39.829 51.6451C40.0021 51.3469 40.1692 51.0418 40.3305 50.7299C41.9943 47.5125 42.8262 43.7242 42.8262 39.3651C42.8262 35.2607 41.9876 31.7396 40.3106 28.8018ZM28.3981 53.0651C27.3583 54.4663 25.7985 55.1928 23.7188 55.2447C21.5871 55.2966 19.8713 54.5182 18.5715 52.9094C17.3236 51.2488 16.4138 49.1471 15.8418 46.6043C15.2699 44.0615 14.984 41.4668 14.984 38.8202C14.984 36.5368 15.2179 34.3573 15.6859 32.2815C16.2058 30.1538 17.0377 28.3895 18.1815 26.9883C19.3774 25.5872 20.9891 24.8606 23.0169 24.8087C24.5767 24.7569 25.8765 25.2239 26.9163 26.2099C28.0082 27.1959 28.8661 28.4932 29.49 30.102C30.1139 31.7107 30.5558 33.501 30.8158 35.473C31.1278 37.445 31.2837 39.391 31.2837 41.3111C31.2837 43.4907 31.0758 45.6443 30.6598 47.7719C30.2439 49.8996 29.49 51.664 28.3981 53.0651ZM62.0515 53.0651C61.0116 54.4663 59.4519 55.1928 57.3721 55.2447C55.2404 55.2966 53.5247 54.5182 52.2248 52.9094C50.977 51.2488 50.0671 49.1471 49.4952 46.6043C48.9233 44.0615 48.6373 41.4668 48.6373 38.8202C48.6373 36.5368 48.8713 34.3573 49.3392 32.2815C49.8592 30.1538 50.6911 28.3895 51.8349 26.9883C53.0307 25.5872 54.6425 24.8606 56.6702 24.8087C58.23 24.7569 59.5299 25.2239 60.5697 26.2099C61.6616 27.1959 62.5194 28.4932 63.1434 30.102C63.7673 31.7107 64.2092 33.501 64.4692 35.473C64.7811 37.445 64.9371 39.391 64.9371 41.3111C64.9371 43.4907 64.7291 45.6443 64.3132 47.7719C63.8973 49.8996 63.1434 51.664 62.0515 53.0651Z" fill="#1A1F26"/>
</svg>