<svg width="1786" height="682" viewBox="0 0 1786 682" fill="none" xmlns="http://www.w3.org/2000/svg">
<path d="M216.746 465.921C229.35 465.921 238.353 463.445 243.755 458.493C249.607 453.541 253.208 446.564 254.559 437.56C256.359 428.107 257.26 417.528 257.26 405.824L256.584 309.939C256.584 280.678 252.083 259.07 243.08 245.115C234.527 230.71 220.798 223.507 201.891 223.507C190.638 223.507 179.384 225.983 168.13 230.935C157.327 235.886 148.099 241.739 140.446 248.491V401.097C140.446 407.399 140.221 416.403 139.771 428.107C139.321 439.361 138.646 450.165 137.745 460.519C145.398 459.619 153.501 459.168 162.053 459.168C170.606 458.718 177.133 458.493 181.635 458.493V509.812H4.72655V465.921C17.3307 465.921 26.3337 463.445 31.7354 458.493C37.5874 453.541 41.1885 446.564 42.539 437.56C43.8894 428.107 44.5647 417.528 44.5647 405.824V128.297C44.5647 120.194 44.7897 110.966 45.2399 100.612C45.69 89.8079 46.3653 79.4541 47.2655 69.5505C40.0632 70.0007 31.5104 70.4508 21.6071 70.901C12.154 70.901 4.95163 71.1261 0 71.5762V20.2574C21.157 20.2574 38.7127 19.132 52.6673 16.8812C67.0721 14.6304 78.3258 11.9294 86.4284 8.77823C94.9813 5.62708 100.833 2.70101 103.984 0H140.446V199.198C149.449 191.995 159.803 185.693 171.506 180.291C183.21 174.439 195.139 169.937 207.293 166.786C219.447 163.185 230.026 161.384 239.029 161.384C280.442 161.384 309.702 173.314 326.808 197.172C343.913 220.581 352.691 258.395 353.141 310.614V401.097C353.141 407.399 352.916 416.403 352.466 428.107C352.016 439.361 351.341 450.165 350.44 460.519C357.643 459.619 365.52 459.168 374.073 459.168C382.626 458.718 389.378 458.493 394.33 458.493V509.812H216.746V465.921Z" fill="black"/>
<path d="M1087.93 682V638.109C1100.53 638.109 1109.54 635.633 1114.94 630.681C1120.79 625.729 1124.39 618.527 1125.74 609.073C1127.54 600.07 1128.44 589.716 1128.44 578.012V292.382C1128.44 284.279 1128.67 275.276 1129.12 265.372C1129.57 255.019 1130.24 244.89 1131.14 234.986C1123.94 235.436 1115.39 235.886 1105.49 236.337C1095.58 236.337 1088.16 236.562 1083.2 237.012V185.693C1104.36 185.693 1121.92 184.568 1135.87 182.317C1150.28 180.066 1161.53 177.365 1169.63 174.214C1178.19 171.063 1184.04 168.137 1187.19 165.436H1220.27C1221.17 169.937 1221.85 175.564 1222.3 182.317C1222.75 188.619 1223.2 193.796 1223.65 197.848C1239.41 184.343 1254.94 174.889 1270.24 169.487C1286 164.085 1300.85 161.384 1314.81 161.384C1341.81 161.384 1365.45 168.362 1385.7 182.317C1406.41 196.272 1422.39 216.079 1433.64 241.739C1445.35 267.398 1451.2 297.559 1451.2 332.222C1451.2 368.235 1444.22 400.647 1430.27 429.457C1416.31 457.818 1396.73 480.101 1371.52 496.307C1346.77 512.513 1317.51 520.616 1283.75 520.616C1271.59 520.616 1260.56 519.265 1250.66 516.564C1241.21 514.314 1232.2 511.613 1223.65 508.461V573.285C1223.65 579.588 1223.43 588.366 1222.98 599.62C1222.98 611.324 1222.52 622.353 1221.62 632.707C1228.83 631.807 1236.7 631.131 1245.26 630.681C1253.81 630.681 1260.34 630.681 1264.84 630.681V682H1087.93ZM1272.94 469.972C1293.65 469.522 1309.63 463.445 1320.88 451.741C1332.59 439.586 1340.69 423.83 1345.19 404.473C1349.69 385.116 1351.94 364.409 1351.94 342.351C1351.94 321.643 1349.47 302.061 1344.52 283.604C1339.56 265.147 1331.69 250.292 1320.88 239.038C1310.08 227.333 1295.9 221.706 1278.34 222.156C1267.09 222.607 1256.74 225.533 1247.28 230.935C1237.83 235.886 1229.95 242.864 1223.65 251.867C1223.65 265.822 1223.65 279.778 1223.65 293.733C1223.65 307.238 1223.65 320.743 1223.65 334.248C1223.65 347.752 1223.65 361.482 1223.65 375.438C1223.65 388.943 1223.65 402.673 1223.65 416.628C1223.65 430.133 1223.65 443.863 1223.65 457.818C1228.6 460.969 1235.58 463.895 1244.58 466.596C1253.59 469.297 1263.04 470.422 1272.94 469.972Z" fill="black"/>
<path d="M1662.18 520.616C1642.82 520.616 1623.92 518.14 1605.46 513.188C1587 508.236 1572.6 501.934 1562.25 494.281L1563.6 514.539H1512.28L1509.58 398.396H1553.47C1554.82 411.901 1560.22 424.281 1569.67 435.535C1579.13 446.789 1591.51 455.792 1606.81 462.545C1622.12 468.847 1639.22 471.998 1658.13 471.998C1665.78 471.998 1672.98 470.873 1679.73 468.622C1686.94 466.371 1692.79 462.77 1697.29 457.818C1702.24 452.416 1704.72 445.888 1704.72 438.236C1704.72 429.683 1701.57 422.705 1695.27 417.303C1689.41 411.901 1680.64 406.724 1668.93 401.772C1657.68 396.821 1643.5 391.193 1626.39 384.891C1612.44 379.489 1598.26 373.862 1583.85 368.01C1569.9 362.158 1556.84 355.18 1544.69 347.077C1532.99 338.524 1523.53 328.17 1516.33 316.016C1509.13 303.411 1505.53 288.106 1505.53 270.099C1505.53 257.044 1508 244.215 1512.96 231.61C1517.91 218.555 1525.56 206.851 1535.91 196.497C1546.27 185.693 1559.32 177.14 1575.08 170.838C1591.28 164.535 1610.41 161.384 1632.47 161.384C1644.62 161.384 1658.35 163.41 1673.66 167.461C1689.41 171.063 1702.69 176.69 1713.5 184.343V164.76H1764.81V284.279H1720.92C1718.22 268.523 1712.6 255.019 1704.04 243.764C1695.94 232.51 1685.36 223.957 1672.31 218.105C1659.25 211.803 1644.62 208.652 1628.42 208.652C1617.16 208.652 1606.81 211.353 1597.36 216.754C1588.35 222.156 1583.85 231.385 1583.85 244.44C1583.85 254.793 1587.45 263.121 1594.66 269.424C1601.86 275.276 1611.76 280.228 1624.37 284.279C1636.97 288.331 1650.93 293.057 1666.23 298.459C1689.19 306.112 1709.44 315.116 1727 325.469C1745.01 335.823 1759.19 348.428 1769.54 363.283C1779.89 377.689 1785.07 395.47 1785.07 416.628C1785.07 440.036 1779.22 459.393 1767.51 474.699C1755.81 490.005 1740.5 501.484 1721.6 509.137C1703.14 516.789 1683.34 520.616 1662.18 520.616Z" fill="black"/>
<path fill-rule="evenodd" clip-rule="evenodd" d="M487.837 513.179C516.267 528.352 548.127 535.939 583.419 535.939C619.201 535.939 650.817 527.863 678.266 511.71C703.054 496.682 723.045 476.065 738.24 449.86C754.827 477.134 777.115 498.24 805.105 513.179C833.535 528.352 865.395 535.939 900.687 535.939C936.469 535.939 968.085 527.863 995.534 511.71C1022.98 495.068 1044.55 471.574 1060.24 441.227C1075.92 410.88 1083.76 375.149 1083.76 334.034C1083.76 294.876 1075.68 261.348 1059.5 233.448C1043.32 205.059 1021.27 183.278 993.328 168.104C965.389 152.931 933.773 145.344 898.481 145.344C865.15 145.344 834.27 153.91 805.84 171.041C780.322 186.241 759.302 207.36 742.78 234.4C742.598 234.082 742.416 233.765 742.232 233.448C726.057 205.059 703.999 183.278 676.06 168.104C648.121 152.931 616.505 145.344 581.213 145.344C547.882 145.344 517.002 153.91 488.572 171.041C460.633 187.683 438.085 211.422 420.93 242.259C404.264 272.606 395.931 308.092 395.931 348.718C395.931 386.896 404.019 420.18 420.194 448.569C436.86 476.469 459.407 498.005 487.837 513.179ZM742.78 234.4C741.212 236.967 739.685 239.586 738.198 242.259C721.532 272.606 713.199 308.092 713.199 348.718C713.199 386.896 721.287 420.18 737.462 448.569C737.72 449.001 737.979 449.431 738.24 449.86C739.871 447.046 741.447 444.169 742.968 441.227C758.653 410.88 766.495 375.149 766.495 334.034C766.495 295.321 758.59 262.11 742.78 234.4ZM630.475 463.253C620.672 476.469 605.967 483.321 586.36 483.811C566.263 484.3 550.088 476.958 537.834 461.785C526.07 446.122 517.492 426.298 512.1 402.314C506.708 378.331 504.012 353.857 504.012 328.894C504.012 307.358 506.218 286.8 510.63 267.222C515.531 247.153 523.374 230.512 534.158 217.296C545.431 204.08 560.626 197.228 579.743 196.738C594.448 196.249 606.702 200.654 616.505 209.954C626.799 219.254 634.886 231.49 640.768 246.664C646.65 261.837 650.817 278.724 653.267 297.324C656.208 315.924 657.679 334.279 657.679 352.389C657.679 372.946 655.718 393.259 651.797 413.328C647.876 433.396 640.768 450.037 630.475 463.253ZM947.743 463.253C937.939 476.469 923.235 483.321 903.628 483.811C883.531 484.3 867.356 476.958 855.102 461.785C843.338 446.122 834.76 426.298 829.368 402.314C823.976 378.331 821.28 353.857 821.28 328.894C821.28 307.358 823.486 286.8 827.898 267.222C832.799 247.153 840.642 230.512 851.425 217.296C862.699 204.08 877.894 197.228 897.011 196.738C911.716 196.249 923.97 200.654 933.773 209.954C944.067 219.254 952.154 231.49 958.036 246.664C963.918 261.837 968.085 278.724 970.535 297.324C973.476 315.924 974.947 334.279 974.947 352.389C974.947 372.946 972.986 393.259 969.065 413.328C965.144 433.396 958.036 450.037 947.743 463.253Z" fill="black"/>
</svg>