<svg width="445" height="165" viewBox="0 0 445 165" fill="none" xmlns="http://www.w3.org/2000/svg">
<path d="M52.4386 112.723C55.488 112.723 57.6661 112.124 58.973 110.926C60.3888 109.728 61.2601 108.04 61.5868 105.861C62.0224 103.574 62.2402 101.015 62.2402 98.1832L62.0769 74.9852C62.0769 67.9059 60.9878 62.6782 58.8097 59.302C56.7404 55.8168 53.4188 54.0743 48.8447 54.0743C46.122 54.0743 43.3994 54.6733 40.6767 55.8713C38.0629 57.0693 35.8303 58.4851 33.9789 60.1188V97.0396C33.9789 98.5644 33.9245 100.743 33.8156 103.574C33.7067 106.297 33.5433 108.911 33.3255 111.416C35.1769 111.198 37.1372 111.089 39.2064 111.089C41.2757 110.98 42.8548 110.926 43.9439 110.926V123.342H1.14352V112.723C4.19291 112.723 6.37105 112.124 7.67793 110.926C9.09372 109.728 9.96497 108.04 10.2917 105.861C10.6184 103.574 10.7818 101.015 10.7818 98.1832V31.0396C10.7818 29.0792 10.8362 26.8465 10.9451 24.3416C11.054 21.7277 11.2174 19.2228 11.4352 16.8267C9.6927 16.9356 7.62348 17.0446 5.22753 17.1535C2.94048 17.1535 1.19797 17.2079 0 17.3168V4.90099C5.11862 4.90099 9.36598 4.62872 12.7421 4.08416C16.2271 3.53961 18.9498 2.88614 20.9101 2.12376C22.9793 1.36139 24.3951 0.65347 25.1575 0H33.9789V48.1931C36.1571 46.4505 38.6619 44.9257 41.4935 43.6188C44.3251 42.203 47.2111 41.1139 50.1516 40.3515C53.0921 39.4802 55.6514 39.0446 57.8295 39.0446C67.8489 39.0446 74.9279 41.9307 79.0663 47.703C83.2048 53.3663 85.3285 62.5149 85.4374 75.1485V97.0396C85.4374 98.5644 85.3829 100.743 85.274 103.574C85.1651 106.297 85.0018 108.911 84.7839 111.416C86.5265 111.198 88.4323 111.089 90.5015 111.089C92.5708 110.98 94.2044 110.926 95.4024 110.926V123.342H52.4386V112.723Z" fill="black"/>
<path d="M276.296 165V154.381C279.346 154.381 281.524 153.782 282.831 152.584C284.247 151.386 285.118 149.644 285.445 147.356C285.88 145.178 286.098 142.673 286.098 139.842V70.7376C286.098 68.7772 286.152 66.599 286.261 64.203C286.37 61.698 286.534 59.2475 286.751 56.8515C285.009 56.9604 282.94 57.0693 280.544 57.1782C278.148 57.1782 276.351 57.2327 275.153 57.3416V44.9258C280.271 44.9258 284.519 44.6535 287.895 44.1089C291.38 43.5644 294.103 42.9109 296.063 42.1485C298.132 41.3861 299.548 40.6782 300.31 40.0247H308.315C308.533 41.1139 308.696 42.4753 308.805 44.1089C308.914 45.6337 309.023 46.8861 309.132 47.8663C312.944 44.599 316.701 42.3119 320.404 41.005C324.215 39.698 327.809 39.0446 331.185 39.0446C337.72 39.0446 343.437 40.7327 348.338 44.1089C353.348 47.4851 357.214 52.2772 359.937 58.4852C362.768 64.6931 364.184 71.9901 364.184 80.3762C364.184 89.0891 362.496 96.9307 359.12 103.901C355.744 110.762 351.006 116.153 344.908 120.074C338.918 123.995 331.839 125.955 323.671 125.955C320.73 125.955 318.062 125.629 315.666 124.975C313.379 124.431 311.201 123.777 309.132 123.015V138.698C309.132 140.223 309.077 142.347 308.968 145.069C308.968 147.901 308.86 150.569 308.642 153.074C310.384 152.856 312.29 152.693 314.359 152.584C316.429 152.584 318.008 152.584 319.097 152.584V165H276.296ZM321.057 113.703C326.067 113.594 329.933 112.124 332.656 109.292C335.487 106.351 337.448 102.54 338.537 97.8564C339.626 93.1733 340.17 88.1634 340.17 82.8267C340.17 77.8168 339.571 73.0792 338.373 68.6139C337.175 64.1485 335.269 60.5545 332.656 57.8317C330.042 55 326.611 53.6386 322.364 53.7475C319.641 53.8564 317.136 54.5644 314.849 55.8713C312.562 57.0693 310.656 58.7574 309.132 60.9356C309.132 64.3119 309.132 67.6881 309.132 71.0644C309.132 74.3317 309.132 77.599 309.132 80.8663C309.132 84.1337 309.132 87.4554 309.132 90.8317C309.132 94.099 309.132 97.4208 309.132 100.797C309.132 104.064 309.132 107.386 309.132 110.762C310.33 111.525 312.018 112.233 314.196 112.886C316.374 113.54 318.661 113.812 321.057 113.703Z" fill="black"/>
<path d="M415.227 125.955C410.544 125.955 405.97 125.356 401.505 124.158C397.04 122.96 393.555 121.436 391.05 119.584L391.377 124.485H378.961L378.308 96.3861H388.926C389.253 99.6535 390.56 102.649 392.847 105.371C395.134 108.094 398.129 110.272 401.832 111.906C405.535 113.431 409.673 114.193 414.247 114.193C416.099 114.193 417.841 113.921 419.475 113.376C421.217 112.832 422.633 111.96 423.722 110.762C424.92 109.455 425.519 107.876 425.519 106.025C425.519 103.955 424.757 102.267 423.232 100.96C421.816 99.6535 419.693 98.401 416.861 97.203C414.138 96.005 410.708 94.6436 406.569 93.1188C403.193 91.8119 399.763 90.4505 396.278 89.0347C392.902 87.6188 389.743 85.9307 386.803 83.9703C383.971 81.901 381.684 79.396 379.942 76.4554C378.199 73.4059 377.328 69.703 377.328 65.3465C377.328 62.1881 377.927 59.0842 379.125 56.0347C380.323 52.8762 382.174 50.0446 384.679 47.5396C387.184 44.9257 390.342 42.8564 394.154 41.3317C398.075 39.8069 402.703 39.0446 408.04 39.0446C410.98 39.0446 414.302 39.5347 418.005 40.5149C421.816 41.3861 425.029 42.7475 427.643 44.599V39.8614H440.058V68.7772H429.44C428.786 64.9653 427.425 61.698 425.356 58.9753C423.395 56.2525 420.836 54.1832 417.678 52.7673C414.52 51.2426 410.98 50.4802 407.059 50.4802C404.337 50.4802 401.832 51.1337 399.545 52.4406C397.367 53.7475 396.278 55.9802 396.278 59.1386C396.278 61.6436 397.149 63.6584 398.891 65.1832C400.634 66.599 403.03 67.797 406.079 68.7772C409.129 69.7574 412.505 70.901 416.208 72.2079C421.762 74.0594 426.663 76.2376 430.91 78.7426C435.266 81.2475 438.697 84.297 441.202 87.8911C443.707 91.3762 444.959 95.6782 444.959 100.797C444.959 106.46 443.543 111.144 440.712 114.847C437.88 118.549 434.177 121.327 429.603 123.178C425.138 125.03 420.346 125.955 415.227 125.955Z" fill="black"/>
<path fill-rule="evenodd" clip-rule="evenodd" d="M127.051 124.156C133.929 127.827 141.637 129.663 150.176 129.663C158.832 129.663 166.481 127.709 173.122 123.801C179.119 120.165 183.956 115.177 187.632 108.837C191.645 115.436 197.038 120.542 203.809 124.156C210.687 127.827 218.396 129.663 226.934 129.663C235.591 129.663 243.24 127.709 249.881 123.801C256.522 119.775 261.74 114.09 265.534 106.748C269.329 99.4065 271.227 90.7619 271.227 80.8146C271.227 71.3411 269.27 63.2293 265.356 56.4794C261.443 49.6111 256.107 44.3414 249.347 40.6704C242.588 36.9994 234.939 35.1639 226.4 35.1639C218.336 35.1639 210.865 37.2363 203.987 41.381C197.813 45.0582 192.728 50.1678 188.731 56.7098C188.687 56.6328 188.642 56.556 188.598 56.4794C184.685 49.6111 179.348 44.3414 172.589 40.6704C165.829 36.9994 158.18 35.1639 149.642 35.1639C141.578 35.1639 134.107 37.2363 127.229 41.381C120.469 45.4072 115.014 51.1505 110.864 58.611C106.832 65.953 104.816 74.5384 104.816 84.3672C104.816 93.6039 106.772 101.656 110.686 108.525C114.718 115.275 120.173 120.485 127.051 124.156ZM188.731 56.7098C188.351 57.3306 187.982 57.9643 187.622 58.611C183.59 65.953 181.574 74.5384 181.574 84.3672C181.574 93.6039 183.531 101.656 187.444 108.525C187.506 108.629 187.569 108.733 187.632 108.837C188.027 108.156 188.408 107.46 188.776 106.748C192.571 99.4065 194.468 90.7619 194.468 80.8146C194.468 71.4486 192.556 63.4136 188.731 56.7098ZM161.56 112.077C159.188 115.275 155.631 116.933 150.887 117.051C146.025 117.169 142.112 115.393 139.147 111.722C136.301 107.933 134.225 103.137 132.921 97.3341C131.616 91.5316 130.964 85.6106 130.964 79.5712C130.964 74.3608 131.498 69.3871 132.565 64.6504C133.751 59.7952 135.648 55.7689 138.257 52.5716C140.985 49.3743 144.661 47.7164 149.286 47.598C152.844 47.4795 155.808 48.5453 158.18 50.7953C160.671 53.0453 162.627 56.0058 164.05 59.6768C165.473 63.3478 166.481 67.4332 167.074 71.9332C167.786 76.4331 168.142 80.8738 168.142 85.2554C168.142 90.229 167.667 95.1434 166.719 99.9986C165.77 104.854 164.05 108.88 161.56 112.077ZM238.318 112.077C235.947 115.275 232.389 116.933 227.645 117.051C222.783 117.169 218.87 115.393 215.905 111.722C213.059 107.933 210.984 103.137 209.679 97.3341C208.375 91.5316 207.723 85.6106 207.723 79.5712C207.723 74.3608 208.256 69.3871 209.324 64.6504C210.509 59.7952 212.407 55.7689 215.016 52.5716C217.743 49.3743 221.42 47.7164 226.044 47.598C229.602 47.4795 232.567 48.5453 234.939 50.7953C237.429 53.0453 239.386 56.0058 240.809 59.6768C242.232 63.3478 243.24 67.4332 243.833 71.9332C244.544 76.4331 244.9 80.8738 244.9 85.2554C244.9 90.229 244.426 95.1434 243.477 99.9986C242.528 104.854 240.809 108.88 238.318 112.077Z" fill="black"/>
</svg>
