<svg width="96" height="96" viewBox="0 0 96 96" fill="none" xmlns="http://www.w3.org/2000/svg">
<path fill-rule="evenodd" clip-rule="evenodd" d="M79 48C79 46.3432 77.6568 45 76 45H20C18.3432 45 17 46.3432 17 48C17 49.6568 18.3432 51 20 51H76C77.6568 51 79 49.6568 79 48Z" fill="black"/>
<path fill-rule="evenodd" clip-rule="evenodd" d="M79 28C79 26.3432 77.6568 25 76 25H20C18.3432 25 17 26.3432 17 28C17 29.6568 18.3432 31 20 31H76C77.6568 31 79 29.6568 79 28Z" fill="black"/>
<path fill-rule="evenodd" clip-rule="evenodd" d="M79 68C79 66.3432 77.6568 65 76 65H20C18.3432 65 17 66.3432 17 68C17 69.6568 18.3432 71 20 71H76C77.6568 71 79 69.6568 79 68Z" fill="black"/>
</svg>
