<svg width="44" height="44" viewBox="0 0 44 44" fill="none" xmlns="http://www.w3.org/2000/svg">
<path opacity="0.64" d="M20.2896 20.1763L20.379 20.1326C20.6588 19.9929 20.9727 19.9362 21.2837 19.9694C21.5946 20.0025 21.8896 20.1241 22.1336 20.3196C22.3776 20.5152 22.5604 20.7766 22.6605 21.0729C22.7605 21.3692 22.7736 21.6879 22.6981 21.9914L21.1535 28.1785C21.0774 28.4821 21.0901 28.8012 21.1899 29.0979C21.2897 29.3945 21.4725 29.6563 21.7166 29.8522C21.9608 30.0481 22.2559 30.1699 22.5672 30.2031C22.8784 30.2362 23.1926 30.1795 23.4726 30.0395L23.562 29.9937M41.5606 21.8125C41.5606 24.391 41.0527 26.9442 40.0659 29.3264C39.0792 31.7086 37.6329 33.8731 35.8097 35.6964C33.9864 37.5196 31.8219 38.9659 29.4397 39.9527C27.0575 40.9394 24.5043 41.4473 21.9258 41.4473C19.3473 41.4473 16.7941 40.9394 14.4119 39.9527C12.0297 38.9659 9.86516 37.5196 8.04191 35.6964C6.21865 33.8731 4.77236 31.7086 3.78562 29.3264C2.79888 26.9442 2.29102 24.391 2.29102 21.8125C2.29102 16.605 4.35967 11.6109 8.04191 7.92862C11.7241 4.24639 16.7183 2.17773 21.9258 2.17773C27.1332 2.17773 32.1274 4.24639 35.8097 7.92862C39.4919 11.6109 41.5606 16.605 41.5606 21.8125ZM21.9258 13.6313H21.9432V13.6488H21.9258V13.6313Z" stroke="white" stroke-width="3.27246" stroke-linecap="round" stroke-linejoin="round"/>
</svg>
