<svg width="50" height="43" viewBox="0 0 50 43" fill="none" xmlns="http://www.w3.org/2000/svg">
<path d="M22.843 7.64323H17.3076C12.6687 7.64323 10.3493 7.64323 8.90817 9.08436C7.46704 10.5255 7.46704 12.8449 7.46704 17.4838L7.46716 32.8597H41.9089L41.9091 17.4838C41.9091 12.8449 41.9091 10.5255 40.468 9.08436C39.0268 7.64323 36.7074 7.64323 32.0685 7.64323H26.5332V19.8766L28.2076 17.9232C28.8706 17.1494 30.0355 17.0598 30.8092 17.723C31.5829 18.3862 31.6724 19.5511 31.0094 20.3248L26.0891 26.0651C25.7386 26.4739 25.2269 26.7094 24.6881 26.7094C24.1496 26.7094 23.6378 26.4739 23.2873 26.0651L18.3669 20.3248C17.7037 19.5511 17.7933 18.3862 18.567 17.723C19.3407 17.0598 20.5056 17.1494 21.1688 17.9232L22.843 19.8766V7.64323Z" fill="white"/>
<path d="M7.54266 36.5502H41.8342C41.708 38.4951 41.3707 39.742 40.4683 40.6443C39.0271 42.0855 36.7077 42.0855 32.0689 42.0855H17.308C12.6691 42.0855 10.3496 42.0855 8.90851 40.6443C8.00611 39.742 7.66877 38.4951 7.54266 36.5502Z" fill="white"/>
<path d="M9.65434 0.262939H39.7228C45.0067 0.262939 49.2901 4.69116 49.2901 10.1536C49.2901 13.3256 47.8457 16.1489 45.5998 17.9588V17.2639C45.6001 15.1343 45.6003 13.1817 45.3868 11.5934C45.1516 9.84433 44.5983 7.99565 43.0777 6.47516C41.5573 4.95466 39.7088 4.4014 37.9596 4.16623C36.3713 3.95269 34.4187 3.95292 32.2892 3.95319H17.0879C14.9583 3.95292 13.0058 3.95269 11.4175 4.16623C9.66839 4.4014 7.81971 4.95466 6.29922 6.47516C4.77875 7.99565 4.22546 9.84433 3.99029 11.5934C3.77675 13.1817 3.777 15.1342 3.77725 17.2638L3.77727 17.9588C1.53143 16.1488 0.0870972 13.3256 0.0870972 10.1536C0.0870972 4.69116 4.37051 0.262939 9.65434 0.262939Z" fill="white"/>
</svg>
