<svg width="43" height="43" viewBox="0 0 43 43" fill="none" xmlns="http://www.w3.org/2000/svg">
<path d="M37.5892 33.3812C36.5674 32.4025 35.5729 31.3956 34.6069 30.3618C33.7953 29.5372 33.3066 28.9372 33.3066 28.9372L27.198 26.0204C29.6436 23.2467 30.9934 19.6761 30.9941 15.9783C30.9941 7.55932 24.1437 0.706787 15.7226 0.706787C7.30146 0.706787 0.451111 7.55932 0.451111 15.9783C0.451111 24.3972 7.30146 31.2498 15.7226 31.2498C19.5688 31.2498 23.0747 29.8099 25.7647 27.4559L28.6815 33.5645C28.6815 33.5645 29.2815 34.0532 30.1062 34.8647C30.9504 35.6567 32.0609 36.7279 33.1255 37.847L36.0882 40.8839L37.4059 42.2932L42.0332 37.666L40.6238 36.3483C39.797 35.5367 38.6931 34.459 37.5892 33.3812ZM15.7226 26.8865C9.70781 26.8865 4.81439 21.9931 4.81439 15.9783C4.81439 9.96349 9.70781 5.07007 15.7226 5.07007C21.7374 5.07007 26.6308 9.96349 26.6308 15.9783C26.6308 21.9931 21.7374 26.8865 15.7226 26.8865Z" fill="#8E8D8D"/>
</svg>
