<svg width="43" height="56" viewBox="0 0 43 56" fill="none" xmlns="http://www.w3.org/2000/svg">
<path d="M18.8617 11.5681H15.1715V2.34258C15.1715 1.85322 15.3659 1.38391 15.7119 1.03789C16.0579 0.691862 16.5273 0.497467 17.0166 0.497467C17.506 0.497467 17.9753 0.691862 18.3213 1.03789C18.6673 1.38391 18.8617 1.85322 18.8617 2.34258V11.5681ZM33.6226 27.1639V15.2584C33.6226 14.2796 33.2338 13.341 32.5418 12.649C31.8497 11.9569 30.9111 11.5681 29.9324 11.5681H18.8617V25.5656L23.0916 21.3334C23.2631 21.162 23.4666 21.026 23.6906 20.9332C23.9146 20.8404 24.1546 20.7927 24.3971 20.7927C24.6395 20.7927 24.8796 20.8404 25.1035 20.9332C25.3275 21.026 25.531 21.162 25.7025 21.3334C25.8739 21.5048 26.0099 21.7083 26.1027 21.9323C26.1954 22.1563 26.2432 22.3964 26.2432 22.6388C26.2432 22.8812 26.1954 23.1213 26.1027 23.3453C26.0099 23.5693 25.8739 23.7728 25.7025 23.9442L18.322 31.3247C18.1507 31.4962 17.9472 31.6323 17.7232 31.7252C17.4992 31.818 17.2591 31.8658 17.0166 31.8658C16.7741 31.8658 16.534 31.818 16.31 31.7252C16.0861 31.6323 15.8826 31.4962 15.7112 31.3247L8.33075 23.9442C7.98453 23.598 7.79003 23.1284 7.79003 22.6388C7.79003 22.1492 7.98453 21.6796 8.33075 21.3334C8.67697 20.9872 9.14654 20.7927 9.63617 20.7927C10.1258 20.7927 10.5954 20.9872 10.9416 21.3334L15.1715 25.5656V11.5681H4.10084C3.12213 11.5681 2.18351 11.9569 1.49145 12.649C0.799404 13.341 0.410614 14.2796 0.410614 15.2584V44.7801C0.410614 45.2695 0.605009 45.7388 0.951035 46.0848C1.29706 46.4308 1.76637 46.6252 2.25573 46.6252H19.4844C19.5583 46.7798 19.639 46.9343 19.7266 47.0865L19.782 47.1742L24.916 55.0159C25.1839 55.4254 25.6035 55.7117 26.0826 55.8119C26.5616 55.912 27.0608 55.8177 27.4703 55.5498C27.8798 55.2819 28.1662 54.8623 28.2663 54.3832C28.3664 53.9042 28.2722 53.405 28.0042 52.9955L22.9002 45.2022C22.5384 44.5633 22.4452 43.8068 22.6411 43.0992C22.8371 42.3916 23.3061 41.7908 23.945 41.4289C24.5839 41.0671 25.3404 40.9739 26.048 41.1699C26.7556 41.3658 27.3564 41.8348 27.7183 42.4737C27.7344 42.5037 27.7529 42.5337 27.7713 42.5614L30.2345 46.3231C30.4523 46.6552 30.7713 46.9081 31.1443 47.0444C31.5172 47.1807 31.9242 47.193 32.3047 47.0795C32.6852 46.9661 33.019 46.7329 33.2564 46.4146C33.4939 46.0964 33.6223 45.71 33.6226 45.3129V31.8644C35.3617 33.4742 36.7507 35.425 37.703 37.5951C38.6554 39.7652 39.1506 42.1081 39.1579 44.478V54.0057C39.1579 54.495 39.3523 54.9644 39.6984 55.3104C40.0444 55.6564 40.5137 55.8508 41.0031 55.8508C41.4924 55.8508 41.9617 55.6564 42.3077 55.3104C42.6538 54.9644 42.8482 54.495 42.8482 54.0057V44.4688C42.8377 41.0508 41.9917 37.6872 40.3837 34.671C38.7757 31.6549 36.4546 29.0777 33.6226 27.1639Z" fill="#212020"/>
</svg>
