<svg width="287" height="286" viewBox="0 0 287 286" fill="none" xmlns="http://www.w3.org/2000/svg">
<path d="M0 129.864C0 68.6462 0 38.0372 19.0601 19.0186C38.1202 0 68.796 0 130.147 0H156.177C217.529 0 248.204 0 267.264 19.0186C286.324 38.0372 286.324 68.6462 286.324 129.864V155.837C286.324 217.055 286.324 247.664 267.264 266.682C248.204 285.701 217.529 285.701 156.177 285.701H130.147C68.796 285.701 38.1202 285.701 19.0601 266.682C0 247.664 0 217.055 0 155.837V129.864Z" fill="#872AB0"/>
<path fill-rule="evenodd" clip-rule="evenodd" d="M167.616 131.396L199.273 163.115L230.711 131.597L244.506 145.343L199.273 190.685L167.616 158.966L117.691 208.983L90.9051 182.146L58.8363 214.275L45.041 200.522L90.9051 154.576L117.691 181.413L167.622 131.396H167.616Z" fill="white"/>
<path fill-rule="evenodd" clip-rule="evenodd" d="M167.616 77.917L199.273 109.636L230.711 78.1183L244.506 91.8644L199.273 137.206L167.616 105.487L117.691 155.504L90.9051 128.668L58.8363 160.796L45.041 147.044L90.9051 101.098L117.691 127.934L167.622 77.917H167.616Z" fill="white"/>
</svg>
